<?xml version="1.0" encoding="utf-8" standalone="no"?>
<!DOCTYPE svg PUBLIC "-//W3C//DTD SVG 1.1//EN"
  "http://www.w3.org/Graphics/SVG/1.1/DTD/svg11.dtd">
<!-- Created with matplotlib (http://matplotlib.org/) -->
<svg height="408pt" version="1.1" viewBox="0 0 505 408" width="505pt" xmlns="http://www.w3.org/2000/svg" xmlns:xlink="http://www.w3.org/1999/xlink">
 <defs>
  <style type="text/css">
*{stroke-linecap:butt;stroke-linejoin:round;}
  </style>
 </defs>
 <g id="figure_1">
  <g id="patch_1">
   <path d="
M0 408.169
L505.83 408.169
L505.83 0
L0 0
z
" style="fill:#ffffff;"/>
  </g>
  <g id="axes_1">
   <g id="patch_2">
    <path d="
M45.4331 368.742
L491.833 368.742
L491.833 23.1417
L45.4331 23.1417
z
" style="fill:#ffffff;"/>
   </g>
   <g id="LineCollection_1">
    <defs>
     <path d="
M67.7531 -86.4134
L67.7531 -330.017" id="C0_0_dc3c5cd5bc"/>
     <path d="
M90.0731 -98.308
L90.0731 -332.115" id="C0_1_46bbbfc0dc"/>
     <path d="
M112.393 -106.922
L112.393 -341.4" id="C0_2_3735e62586"/>
     <path d="
M134.713 -78.6626
L134.713 -302.088" id="C0_3_284a912b22"/>
     <path d="
M157.033 -105.933
L157.033 -352.132" id="C0_4_2214486b68"/>
     <path d="
M179.353 -83.2045
L179.353 -310.141" id="C0_5_cd2c5896c1"/>
     <path d="
M201.673 -52.0552
L201.673 -289.529" id="C0_6_e2cfaf0db7"/>
     <path d="
M223.993 -58.3154
L223.993 -283.396" id="C0_7_a652e9641f"/>
     <path d="
M246.313 -64.193
L246.313 -265.778" id="C0_8_06fc1a03bf"/>
     <path d="
M268.633 -75.1662
L268.633 -281.222" id="C0_9_80f937fcf6"/>
     <path d="
M290.953 -88.235
L290.953 -273.815" id="C0_a_ae7c6f0f09"/>
     <path d="
M313.273 -89.2828
L313.273 -280.314" id="C0_b_3feb46f0a7"/>
     <path d="
M335.593 -87.9587
L335.593 -280.659" id="C0_c_31c457ed52"/>
     <path d="
M357.913 -87.9587
L357.913 -280.659" id="C0_d_8db13a6e6b"/>
     <path d="
M380.233 -87.9587
L380.233 -280.659" id="C0_e_af21b1c5ad"/>
     <path d="
M402.553 -87.9587
L402.553 -280.659" id="C0_f_8877b33816"/>
     <path d="
M424.873 -87.9587
L424.873 -280.659" id="C0_10_0d1ce20469"/>
     <path d="
M447.193 -87.9587
L447.193 -280.659" id="C0_11_2685c637e0"/>
     <path d="
M469.513 -87.9587
L469.513 -280.659" id="C0_12_92c02cb0a9"/>
     <path d="
M491.833 -87.9587
L491.833 -280.659" id="C0_13_2ca6967515"/>
    </defs>
    <g clip-path="url(#p0827bc6f34)">
     <use style="fill:none;stroke:#0000ff;" x="0.0" xlink:href="#C0_0_dc3c5cd5bc" y="408.16925"/>
    </g>
    <g clip-path="url(#p0827bc6f34)">
     <use style="fill:none;stroke:#0000ff;" x="0.0" xlink:href="#C0_1_46bbbfc0dc" y="408.16925"/>
    </g>
    <g clip-path="url(#p0827bc6f34)">
     <use style="fill:none;stroke:#0000ff;" x="0.0" xlink:href="#C0_2_3735e62586" y="408.16925"/>
    </g>
    <g clip-path="url(#p0827bc6f34)">
     <use style="fill:none;stroke:#0000ff;" x="0.0" xlink:href="#C0_3_284a912b22" y="408.16925"/>
    </g>
    <g clip-path="url(#p0827bc6f34)">
     <use style="fill:none;stroke:#0000ff;" x="0.0" xlink:href="#C0_4_2214486b68" y="408.16925"/>
    </g>
    <g clip-path="url(#p0827bc6f34)">
     <use style="fill:none;stroke:#0000ff;" x="0.0" xlink:href="#C0_5_cd2c5896c1" y="408.16925"/>
    </g>
    <g clip-path="url(#p0827bc6f34)">
     <use style="fill:none;stroke:#0000ff;" x="0.0" xlink:href="#C0_6_e2cfaf0db7" y="408.16925"/>
    </g>
    <g clip-path="url(#p0827bc6f34)">
     <use style="fill:none;stroke:#0000ff;" x="0.0" xlink:href="#C0_7_a652e9641f" y="408.16925"/>
    </g>
    <g clip-path="url(#p0827bc6f34)">
     <use style="fill:none;stroke:#0000ff;" x="0.0" xlink:href="#C0_8_06fc1a03bf" y="408.16925"/>
    </g>
    <g clip-path="url(#p0827bc6f34)">
     <use style="fill:none;stroke:#0000ff;" x="0.0" xlink:href="#C0_9_80f937fcf6" y="408.16925"/>
    </g>
    <g clip-path="url(#p0827bc6f34)">
     <use style="fill:none;stroke:#0000ff;" x="0.0" xlink:href="#C0_a_ae7c6f0f09" y="408.16925"/>
    </g>
    <g clip-path="url(#p0827bc6f34)">
     <use style="fill:none;stroke:#0000ff;" x="0.0" xlink:href="#C0_b_3feb46f0a7" y="408.16925"/>
    </g>
    <g clip-path="url(#p0827bc6f34)">
     <use style="fill:none;stroke:#0000ff;" x="0.0" xlink:href="#C0_c_31c457ed52" y="408.16925"/>
    </g>
    <g clip-path="url(#p0827bc6f34)">
     <use style="fill:none;stroke:#0000ff;" x="0.0" xlink:href="#C0_d_8db13a6e6b" y="408.16925"/>
    </g>
    <g clip-path="url(#p0827bc6f34)">
     <use style="fill:none;stroke:#0000ff;" x="0.0" xlink:href="#C0_e_af21b1c5ad" y="408.16925"/>
    </g>
    <g clip-path="url(#p0827bc6f34)">
     <use style="fill:none;stroke:#0000ff;" x="0.0" xlink:href="#C0_f_8877b33816" y="408.16925"/>
    </g>
    <g clip-path="url(#p0827bc6f34)">
     <use style="fill:none;stroke:#0000ff;" x="0.0" xlink:href="#C0_10_0d1ce20469" y="408.16925"/>
    </g>
    <g clip-path="url(#p0827bc6f34)">
     <use style="fill:none;stroke:#0000ff;" x="0.0" xlink:href="#C0_11_2685c637e0" y="408.16925"/>
    </g>
    <g clip-path="url(#p0827bc6f34)">
     <use style="fill:none;stroke:#0000ff;" x="0.0" xlink:href="#C0_12_92c02cb0a9" y="408.16925"/>
    </g>
    <g clip-path="url(#p0827bc6f34)">
     <use style="fill:none;stroke:#0000ff;" x="0.0" xlink:href="#C0_13_2ca6967515" y="408.16925"/>
    </g>
   </g>
   <g id="line2d_1">
    <defs>
     <path d="
M3 1.83697e-16
L-3 -1.83697e-16" id="mdde457ef1d" style="stroke:#0000ff;stroke-width:0.5;"/>
    </defs>
    <g clip-path="url(#p0827bc6f34)">
     <use style="fill:#0000ff;stroke:#0000ff;stroke-width:0.5;" x="67.753125" xlink:href="#mdde457ef1d" y="321.755807233"/>
     <use style="fill:#0000ff;stroke:#0000ff;stroke-width:0.5;" x="90.073125" xlink:href="#mdde457ef1d" y="309.861253197"/>
     <use style="fill:#0000ff;stroke:#0000ff;stroke-width:0.5;" x="112.393125" xlink:href="#mdde457ef1d" y="301.246815414"/>
     <use style="fill:#0000ff;stroke:#0000ff;stroke-width:0.5;" x="134.713125" xlink:href="#mdde457ef1d" y="329.506686144"/>
     <use style="fill:#0000ff;stroke:#0000ff;stroke-width:0.5;" x="157.033125" xlink:href="#mdde457ef1d" y="302.236601364"/>
     <use style="fill:#0000ff;stroke:#0000ff;stroke-width:0.5;" x="179.353125" xlink:href="#mdde457ef1d" y="324.964725178"/>
     <use style="fill:#0000ff;stroke:#0000ff;stroke-width:0.5;" x="201.673125" xlink:href="#mdde457ef1d" y="356.114054205"/>
     <use style="fill:#0000ff;stroke:#0000ff;stroke-width:0.5;" x="223.993125" xlink:href="#mdde457ef1d" y="349.853898218"/>
     <use style="fill:#0000ff;stroke:#0000ff;stroke-width:0.5;" x="246.313125" xlink:href="#mdde457ef1d" y="343.976289989"/>
     <use style="fill:#0000ff;stroke:#0000ff;stroke-width:0.5;" x="268.633125" xlink:href="#mdde457ef1d" y="333.003094681"/>
     <use style="fill:#0000ff;stroke:#0000ff;stroke-width:0.5;" x="290.953125" xlink:href="#mdde457ef1d" y="319.934203197"/>
     <use style="fill:#0000ff;stroke:#0000ff;stroke-width:0.5;" x="313.273125" xlink:href="#mdde457ef1d" y="318.886482153"/>
     <use style="fill:#0000ff;stroke:#0000ff;stroke-width:0.5;" x="335.593125" xlink:href="#mdde457ef1d" y="320.210526321"/>
     <use style="fill:#0000ff;stroke:#0000ff;stroke-width:0.5;" x="357.913125" xlink:href="#mdde457ef1d" y="320.210526321"/>
     <use style="fill:#0000ff;stroke:#0000ff;stroke-width:0.5;" x="380.233125" xlink:href="#mdde457ef1d" y="320.210526321"/>
     <use style="fill:#0000ff;stroke:#0000ff;stroke-width:0.5;" x="402.553125" xlink:href="#mdde457ef1d" y="320.210526321"/>
     <use style="fill:#0000ff;stroke:#0000ff;stroke-width:0.5;" x="424.873125" xlink:href="#mdde457ef1d" y="320.210526321"/>
     <use style="fill:#0000ff;stroke:#0000ff;stroke-width:0.5;" x="447.193125" xlink:href="#mdde457ef1d" y="320.210526321"/>
     <use style="fill:#0000ff;stroke:#0000ff;stroke-width:0.5;" x="469.513125" xlink:href="#mdde457ef1d" y="320.210526321"/>
     <use style="fill:#0000ff;stroke:#0000ff;stroke-width:0.5;" x="491.833125" xlink:href="#mdde457ef1d" y="320.210526321"/>
    </g>
   </g>
   <g id="line2d_2">
    <g clip-path="url(#p0827bc6f34)">
     <use style="fill:#0000ff;stroke:#0000ff;stroke-width:0.5;" x="67.753125" xlink:href="#mdde457ef1d" y="78.1524494271"/>
     <use style="fill:#0000ff;stroke:#0000ff;stroke-width:0.5;" x="90.073125" xlink:href="#mdde457ef1d" y="76.0540317977"/>
     <use style="fill:#0000ff;stroke:#0000ff;stroke-width:0.5;" x="112.393125" xlink:href="#mdde457ef1d" y="66.7695377498"/>
     <use style="fill:#0000ff;stroke:#0000ff;stroke-width:0.5;" x="134.713125" xlink:href="#mdde457ef1d" y="106.081015887"/>
     <use style="fill:#0000ff;stroke:#0000ff;stroke-width:0.5;" x="157.033125" xlink:href="#mdde457ef1d" y="56.0373773721"/>
     <use style="fill:#0000ff;stroke:#0000ff;stroke-width:0.5;" x="179.353125" xlink:href="#mdde457ef1d" y="98.0280162881"/>
     <use style="fill:#0000ff;stroke:#0000ff;stroke-width:0.5;" x="201.673125" xlink:href="#mdde457ef1d" y="118.640031088"/>
     <use style="fill:#0000ff;stroke:#0000ff;stroke-width:0.5;" x="223.993125" xlink:href="#mdde457ef1d" y="124.772998014"/>
     <use style="fill:#0000ff;stroke:#0000ff;stroke-width:0.5;" x="246.313125" xlink:href="#mdde457ef1d" y="142.391146958"/>
     <use style="fill:#0000ff;stroke:#0000ff;stroke-width:0.5;" x="268.633125" xlink:href="#mdde457ef1d" y="126.94764856"/>
     <use style="fill:#0000ff;stroke:#0000ff;stroke-width:0.5;" x="290.953125" xlink:href="#mdde457ef1d" y="134.354606554"/>
     <use style="fill:#0000ff;stroke:#0000ff;stroke-width:0.5;" x="313.273125" xlink:href="#mdde457ef1d" y="127.855297329"/>
     <use style="fill:#0000ff;stroke:#0000ff;stroke-width:0.5;" x="335.593125" xlink:href="#mdde457ef1d" y="127.510154613"/>
     <use style="fill:#0000ff;stroke:#0000ff;stroke-width:0.5;" x="357.913125" xlink:href="#mdde457ef1d" y="127.510154613"/>
     <use style="fill:#0000ff;stroke:#0000ff;stroke-width:0.5;" x="380.233125" xlink:href="#mdde457ef1d" y="127.510154613"/>
     <use style="fill:#0000ff;stroke:#0000ff;stroke-width:0.5;" x="402.553125" xlink:href="#mdde457ef1d" y="127.510154613"/>
     <use style="fill:#0000ff;stroke:#0000ff;stroke-width:0.5;" x="424.873125" xlink:href="#mdde457ef1d" y="127.510154613"/>
     <use style="fill:#0000ff;stroke:#0000ff;stroke-width:0.5;" x="447.193125" xlink:href="#mdde457ef1d" y="127.510154613"/>
     <use style="fill:#0000ff;stroke:#0000ff;stroke-width:0.5;" x="469.513125" xlink:href="#mdde457ef1d" y="127.510154613"/>
     <use style="fill:#0000ff;stroke:#0000ff;stroke-width:0.5;" x="491.833125" xlink:href="#mdde457ef1d" y="127.510154613"/>
    </g>
   </g>
   <g id="line2d_3">
    <path clip-path="url(#p0827bc6f34)" d="
M67.7531 199.954
L90.0731 192.958
L112.393 184.008
L134.713 217.794
L157.033 179.137
L179.353 211.496
L201.673 237.377
L223.993 237.313
L246.313 243.184
L268.633 229.975
L290.953 227.144
L313.273 223.371
L335.593 223.86
L357.913 223.86
L380.233 223.86
L402.553 223.86
L424.873 223.86
L447.193 223.86
L469.513 223.86
L491.833 223.86" style="fill:none;stroke:#0000ff;stroke-linecap:square;"/>
   </g>
   <g id="patch_3">
    <path d="
M45.4331 23.1417
L491.833 23.1417" style="fill:none;stroke:#000000;stroke-linecap:square;stroke-linejoin:miter;"/>
   </g>
   <g id="patch_4">
    <path d="
M491.833 368.742
L491.833 23.1417" style="fill:none;stroke:#000000;stroke-linecap:square;stroke-linejoin:miter;"/>
   </g>
   <g id="patch_5">
    <path d="
M45.4331 368.742
L491.833 368.742" style="fill:none;stroke:#000000;stroke-linecap:square;stroke-linejoin:miter;"/>
   </g>
   <g id="patch_6">
    <path d="
M45.4331 368.742
L45.4331 23.1417" style="fill:none;stroke:#000000;stroke-linecap:square;stroke-linejoin:miter;"/>
   </g>
   <g id="matplotlib.axis_1">
    <g id="xtick_1">
     <g id="line2d_4">
      <defs>
       <path d="
M0 0
L0 -4" id="m93b0483c22" style="stroke:#000000;stroke-width:0.5;"/>
      </defs>
      <g>
       <use style="stroke:#000000;stroke-width:0.5;" x="45.433125" xlink:href="#m93b0483c22" y="368.74175"/>
      </g>
     </g>
     <g id="line2d_5">
      <defs>
       <path d="
M0 0
L0 4" id="m741efc42ff" style="stroke:#000000;stroke-width:0.5;"/>
      </defs>
      <g>
       <use style="stroke:#000000;stroke-width:0.5;" x="45.433125" xlink:href="#m741efc42ff" y="23.14175"/>
      </g>
     </g>
     <g id="text_1">
      <!-- 0 -->
      <defs>
       <path d="
M31.7812 66.4062
Q24.1719 66.4062 20.3281 58.9062
Q16.5 51.4219 16.5 36.375
Q16.5 21.3906 20.3281 13.8906
Q24.1719 6.39062 31.7812 6.39062
Q39.4531 6.39062 43.2812 13.8906
Q47.125 21.3906 47.125 36.375
Q47.125 51.4219 43.2812 58.9062
Q39.4531 66.4062 31.7812 66.4062
M31.7812 74.2188
Q44.0469 74.2188 50.5156 64.5156
Q56.9844 54.8281 56.9844 36.375
Q56.9844 17.9688 50.5156 8.26562
Q44.0469 -1.42188 31.7812 -1.42188
Q19.5312 -1.42188 13.0625 8.26562
Q6.59375 17.9688 6.59375 36.375
Q6.59375 54.8281 13.0625 64.5156
Q19.5312 74.2188 31.7812 74.2188" id="DejaVuSans-30"/>
      </defs>
      <g transform="translate(42.4096875 381.859875)scale(0.12 -0.12)">
       <use xlink:href="#DejaVuSans-30"/>
      </g>
     </g>
    </g>
    <g id="xtick_2">
     <g id="line2d_6">
      <g>
       <use style="stroke:#000000;stroke-width:0.5;" x="157.033125" xlink:href="#m93b0483c22" y="368.74175"/>
      </g>
     </g>
     <g id="line2d_7">
      <g>
       <use style="stroke:#000000;stroke-width:0.5;" x="157.033125" xlink:href="#m741efc42ff" y="23.14175"/>
      </g>
     </g>
     <g id="text_2">
      <!-- 5 -->
      <defs>
       <path d="
M10.7969 72.9062
L49.5156 72.9062
L49.5156 64.5938
L19.8281 64.5938
L19.8281 46.7344
Q21.9688 47.4688 24.1094 47.8281
Q26.2656 48.1875 28.4219 48.1875
Q40.625 48.1875 47.75 41.5
Q54.8906 34.8125 54.8906 23.3906
Q54.8906 11.625 47.5625 5.09375
Q40.2344 -1.42188 26.9062 -1.42188
Q22.3125 -1.42188 17.5469 -0.640625
Q12.7969 0.140625 7.71875 1.70312
L7.71875 11.625
Q12.1094 9.23438 16.7969 8.0625
Q21.4844 6.89062 26.7031 6.89062
Q35.1562 6.89062 40.0781 11.3281
Q45.0156 15.7656 45.0156 23.3906
Q45.0156 31 40.0781 35.4375
Q35.1562 39.8906 26.7031 39.8906
Q22.75 39.8906 18.8125 39.0156
Q14.8906 38.1406 10.7969 36.2812
z
" id="DejaVuSans-35"/>
      </defs>
      <g transform="translate(154.2028125 381.859875)scale(0.12 -0.12)">
       <use xlink:href="#DejaVuSans-35"/>
      </g>
     </g>
    </g>
    <g id="xtick_3">
     <g id="line2d_8">
      <g>
       <use style="stroke:#000000;stroke-width:0.5;" x="268.633125" xlink:href="#m93b0483c22" y="368.74175"/>
      </g>
     </g>
     <g id="line2d_9">
      <g>
       <use style="stroke:#000000;stroke-width:0.5;" x="268.633125" xlink:href="#m741efc42ff" y="23.14175"/>
      </g>
     </g>
     <g id="text_3">
      <!-- 10 -->
      <defs>
       <path d="
M12.4062 8.29688
L28.5156 8.29688
L28.5156 63.9219
L10.9844 60.4062
L10.9844 69.3906
L28.4219 72.9062
L38.2812 72.9062
L38.2812 8.29688
L54.3906 8.29688
L54.3906 0
L12.4062 0
z
" id="DejaVuSans-31"/>
      </defs>
      <g transform="translate(262.055625 381.859875)scale(0.12 -0.12)">
       <use xlink:href="#DejaVuSans-31"/>
       <use x="63.623046875" xlink:href="#DejaVuSans-30"/>
      </g>
     </g>
    </g>
    <g id="xtick_4">
     <g id="line2d_10">
      <g>
       <use style="stroke:#000000;stroke-width:0.5;" x="380.233125" xlink:href="#m93b0483c22" y="368.74175"/>
      </g>
     </g>
     <g id="line2d_11">
      <g>
       <use style="stroke:#000000;stroke-width:0.5;" x="380.233125" xlink:href="#m741efc42ff" y="23.14175"/>
      </g>
     </g>
     <g id="text_4">
      <!-- 15 -->
      <g transform="translate(373.78125 381.859875)scale(0.12 -0.12)">
       <use xlink:href="#DejaVuSans-31"/>
       <use x="63.623046875" xlink:href="#DejaVuSans-35"/>
      </g>
     </g>
    </g>
    <g id="xtick_5">
     <g id="line2d_12">
      <g>
       <use style="stroke:#000000;stroke-width:0.5;" x="491.833125" xlink:href="#m93b0483c22" y="368.74175"/>
      </g>
     </g>
     <g id="line2d_13">
      <g>
       <use style="stroke:#000000;stroke-width:0.5;" x="491.833125" xlink:href="#m741efc42ff" y="23.14175"/>
      </g>
     </g>
     <g id="text_5">
      <!-- 20 -->
      <defs>
       <path d="
M19.1875 8.29688
L53.6094 8.29688
L53.6094 0
L7.32812 0
L7.32812 8.29688
Q12.9375 14.1094 22.625 23.8906
Q32.3281 33.6875 34.8125 36.5312
Q39.5469 41.8438 41.4219 45.5312
Q43.3125 49.2188 43.3125 52.7812
Q43.3125 58.5938 39.2344 62.25
Q35.1562 65.9219 28.6094 65.9219
Q23.9688 65.9219 18.8125 64.3125
Q13.6719 62.7031 7.8125 59.4219
L7.8125 69.3906
Q13.7656 71.7812 18.9375 73
Q24.125 74.2188 28.4219 74.2188
Q39.75 74.2188 46.4844 68.5469
Q53.2188 62.8906 53.2188 53.4219
Q53.2188 48.9219 51.5312 44.8906
Q49.8594 40.875 45.4062 35.4062
Q44.1875 33.9844 37.6406 27.2188
Q31.1094 20.4531 19.1875 8.29688" id="DejaVuSans-32"/>
      </defs>
      <g transform="translate(485.03625 381.859875)scale(0.12 -0.12)">
       <use xlink:href="#DejaVuSans-32"/>
       <use x="63.623046875" xlink:href="#DejaVuSans-30"/>
      </g>
     </g>
    </g>
    <g id="text_6">
     <!-- Iterations -->
     <defs>
      <path d="
M54.8906 33.0156
L54.8906 0
L45.9062 0
L45.9062 32.7188
Q45.9062 40.4844 42.875 44.3281
Q39.8438 48.1875 33.7969 48.1875
Q26.5156 48.1875 22.3125 43.5469
Q18.1094 38.9219 18.1094 30.9062
L18.1094 0
L9.07812 0
L9.07812 54.6875
L18.1094 54.6875
L18.1094 46.1875
Q21.3438 51.125 25.7031 53.5625
Q30.0781 56 35.7969 56
Q45.2188 56 50.0469 50.1719
Q54.8906 44.3438 54.8906 33.0156" id="DejaVuSans-6e"/>
      <path d="
M30.6094 48.3906
Q23.3906 48.3906 19.1875 42.75
Q14.9844 37.1094 14.9844 27.2969
Q14.9844 17.4844 19.1562 11.8438
Q23.3438 6.20312 30.6094 6.20312
Q37.7969 6.20312 41.9844 11.8594
Q46.1875 17.5312 46.1875 27.2969
Q46.1875 37.0156 41.9844 42.7031
Q37.7969 48.3906 30.6094 48.3906
M30.6094 56
Q42.3281 56 49.0156 48.375
Q55.7188 40.7656 55.7188 27.2969
Q55.7188 13.875 49.0156 6.21875
Q42.3281 -1.42188 30.6094 -1.42188
Q18.8438 -1.42188 12.1719 6.21875
Q5.51562 13.875 5.51562 27.2969
Q5.51562 40.7656 12.1719 48.375
Q18.8438 56 30.6094 56" id="DejaVuSans-6f"/>
      <path d="
M41.1094 46.2969
Q39.5938 47.1719 37.8125 47.5781
Q36.0312 48 33.8906 48
Q26.2656 48 22.1875 43.0469
Q18.1094 38.0938 18.1094 28.8125
L18.1094 0
L9.07812 0
L9.07812 54.6875
L18.1094 54.6875
L18.1094 46.1875
Q20.9531 51.1719 25.4844 53.5781
Q30.0312 56 36.5312 56
Q37.4531 56 38.5781 55.875
Q39.7031 55.7656 41.0625 55.5156
z
" id="DejaVuSans-72"/>
      <path d="
M9.42188 54.6875
L18.4062 54.6875
L18.4062 0
L9.42188 0
z

M9.42188 75.9844
L18.4062 75.9844
L18.4062 64.5938
L9.42188 64.5938
z
" id="DejaVuSans-69"/>
      <path d="
M18.3125 70.2188
L18.3125 54.6875
L36.8125 54.6875
L36.8125 47.7031
L18.3125 47.7031
L18.3125 18.0156
Q18.3125 11.3281 20.1406 9.42188
Q21.9688 7.51562 27.5938 7.51562
L36.8125 7.51562
L36.8125 0
L27.5938 0
Q17.1875 0 13.2344 3.875
Q9.28125 7.76562 9.28125 18.0156
L9.28125 47.7031
L2.6875 47.7031
L2.6875 54.6875
L9.28125 54.6875
L9.28125 70.2188
z
" id="DejaVuSans-74"/>
      <path d="
M56.2031 29.5938
L56.2031 25.2031
L14.8906 25.2031
Q15.4844 15.9219 20.4844 11.0625
Q25.4844 6.20312 34.4219 6.20312
Q39.5938 6.20312 44.4531 7.46875
Q49.3125 8.73438 54.1094 11.2812
L54.1094 2.78125
Q49.2656 0.734375 44.1875 -0.34375
Q39.1094 -1.42188 33.8906 -1.42188
Q20.7969 -1.42188 13.1562 6.1875
Q5.51562 13.8125 5.51562 26.8125
Q5.51562 40.2344 12.7656 48.1094
Q20.0156 56 32.3281 56
Q43.3594 56 49.7812 48.8906
Q56.2031 41.7969 56.2031 29.5938
M47.2188 32.2344
Q47.125 39.5938 43.0938 43.9844
Q39.0625 48.3906 32.4219 48.3906
Q24.9062 48.3906 20.3906 44.1406
Q15.875 39.8906 15.1875 32.1719
z
" id="DejaVuSans-65"/>
      <path d="
M9.8125 72.9062
L19.6719 72.9062
L19.6719 0
L9.8125 0
z
" id="DejaVuSans-49"/>
      <path d="
M44.2812 53.0781
L44.2812 44.5781
Q40.4844 46.5312 36.375 47.5
Q32.2812 48.4844 27.875 48.4844
Q21.1875 48.4844 17.8438 46.4375
Q14.5 44.3906 14.5 40.2812
Q14.5 37.1562 16.8906 35.375
Q19.2812 33.5938 26.5156 31.9844
L29.5938 31.2969
Q39.1562 29.25 43.1875 25.5156
Q47.2188 21.7812 47.2188 15.0938
Q47.2188 7.46875 41.1875 3.01562
Q35.1562 -1.42188 24.6094 -1.42188
Q20.2188 -1.42188 15.4531 -0.5625
Q10.6875 0.296875 5.42188 2
L5.42188 11.2812
Q10.4062 8.6875 15.2344 7.39062
Q20.0625 6.10938 24.8125 6.10938
Q31.1562 6.10938 34.5625 8.28125
Q37.9844 10.4531 37.9844 14.4062
Q37.9844 18.0625 35.5156 20.0156
Q33.0625 21.9688 24.7031 23.7812
L21.5781 24.5156
Q13.2344 26.2656 9.51562 29.9062
Q5.8125 33.5469 5.8125 39.8906
Q5.8125 47.6094 11.2812 51.7969
Q16.75 56 26.8125 56
Q31.7812 56 36.1719 55.2656
Q40.5781 54.5469 44.2812 53.0781" id="DejaVuSans-73"/>
      <path d="
M34.2812 27.4844
Q23.3906 27.4844 19.1875 25
Q14.9844 22.5156 14.9844 16.5
Q14.9844 11.7188 18.1406 8.90625
Q21.2969 6.10938 26.7031 6.10938
Q34.1875 6.10938 38.7031 11.4062
Q43.2188 16.7031 43.2188 25.4844
L43.2188 27.4844
z

M52.2031 31.2031
L52.2031 0
L43.2188 0
L43.2188 8.29688
Q40.1406 3.32812 35.5469 0.953125
Q30.9531 -1.42188 24.3125 -1.42188
Q15.9219 -1.42188 10.9531 3.29688
Q6 8.01562 6 15.9219
Q6 25.1406 12.1719 29.8281
Q18.3594 34.5156 30.6094 34.5156
L43.2188 34.5156
L43.2188 35.4062
Q43.2188 41.6094 39.1406 45
Q35.0625 48.3906 27.6875 48.3906
Q23 48.3906 18.5469 47.2656
Q14.1094 46.1406 10.0156 43.8906
L10.0156 52.2031
Q14.9375 54.1094 19.5781 55.0469
Q24.2188 56 28.6094 56
Q40.4844 56 46.3438 49.8438
Q52.2031 43.7031 52.2031 31.2031" id="DejaVuSans-61"/>
     </defs>
     <g transform="translate(240.9384375 398.473625)scale(0.12 -0.12)">
      <use xlink:href="#DejaVuSans-49"/>
      <use x="29.4921875" xlink:href="#DejaVuSans-74"/>
      <use x="68.701171875" xlink:href="#DejaVuSans-65"/>
      <use x="130.224609375" xlink:href="#DejaVuSans-72"/>
      <use x="171.337890625" xlink:href="#DejaVuSans-61"/>
      <use x="232.6171875" xlink:href="#DejaVuSans-74"/>
      <use x="271.826171875" xlink:href="#DejaVuSans-69"/>
      <use x="299.609375" xlink:href="#DejaVuSans-6f"/>
      <use x="360.791015625" xlink:href="#DejaVuSans-6e"/>
      <use x="424.169921875" xlink:href="#DejaVuSans-73"/>
     </g>
    </g>
   </g>
   <g id="matplotlib.axis_2">
    <g id="ytick_1">
     <g id="line2d_14">
      <defs>
       <path d="
M0 0
L4 0" id="m728421d6d4" style="stroke:#000000;stroke-width:0.5;"/>
      </defs>
      <g>
       <use style="stroke:#000000;stroke-width:0.5;" x="45.433125" xlink:href="#m728421d6d4" y="368.74175"/>
      </g>
     </g>
     <g id="line2d_15">
      <defs>
       <path d="
M0 0
L-4 0" id="mcb0005524f" style="stroke:#000000;stroke-width:0.5;"/>
      </defs>
      <g>
       <use style="stroke:#000000;stroke-width:0.5;" x="491.833125" xlink:href="#mcb0005524f" y="368.74175"/>
      </g>
     </g>
     <g id="text_7">
      <!-- 0.0 -->
      <defs>
       <path d="
M10.6875 12.4062
L21 12.4062
L21 0
L10.6875 0
z
" id="DejaVuSans-2e"/>
      </defs>
      <g transform="translate(23.9375 372.053)scale(0.12 -0.12)">
       <use xlink:href="#DejaVuSans-30"/>
       <use x="63.623046875" xlink:href="#DejaVuSans-2e"/>
       <use x="95.41015625" xlink:href="#DejaVuSans-30"/>
      </g>
     </g>
    </g>
    <g id="ytick_2">
     <g id="line2d_16">
      <g>
       <use style="stroke:#000000;stroke-width:0.5;" x="45.433125" xlink:href="#m728421d6d4" y="325.54175"/>
      </g>
     </g>
     <g id="line2d_17">
      <g>
       <use style="stroke:#000000;stroke-width:0.5;" x="491.833125" xlink:href="#mcb0005524f" y="325.54175"/>
      </g>
     </g>
     <g id="text_8">
      <!-- 0.1 -->
      <g transform="translate(24.24875 328.853)scale(0.12 -0.12)">
       <use xlink:href="#DejaVuSans-30"/>
       <use x="63.623046875" xlink:href="#DejaVuSans-2e"/>
       <use x="95.41015625" xlink:href="#DejaVuSans-31"/>
      </g>
     </g>
    </g>
    <g id="ytick_3">
     <g id="line2d_18">
      <g>
       <use style="stroke:#000000;stroke-width:0.5;" x="45.433125" xlink:href="#m728421d6d4" y="282.34175"/>
      </g>
     </g>
     <g id="line2d_19">
      <g>
       <use style="stroke:#000000;stroke-width:0.5;" x="491.833125" xlink:href="#mcb0005524f" y="282.34175"/>
      </g>
     </g>
     <g id="text_9">
      <!-- 0.2 -->
      <g transform="translate(24.3425 285.653)scale(0.12 -0.12)">
       <use xlink:href="#DejaVuSans-30"/>
       <use x="63.623046875" xlink:href="#DejaVuSans-2e"/>
       <use x="95.41015625" xlink:href="#DejaVuSans-32"/>
      </g>
     </g>
    </g>
    <g id="ytick_4">
     <g id="line2d_20">
      <g>
       <use style="stroke:#000000;stroke-width:0.5;" x="45.433125" xlink:href="#m728421d6d4" y="239.14175"/>
      </g>
     </g>
     <g id="line2d_21">
      <g>
       <use style="stroke:#000000;stroke-width:0.5;" x="491.833125" xlink:href="#mcb0005524f" y="239.14175"/>
      </g>
     </g>
     <g id="text_10">
      <!-- 0.3 -->
      <defs>
       <path d="
M40.5781 39.3125
Q47.6562 37.7969 51.625 33
Q55.6094 28.2188 55.6094 21.1875
Q55.6094 10.4062 48.1875 4.48438
Q40.7656 -1.42188 27.0938 -1.42188
Q22.5156 -1.42188 17.6562 -0.515625
Q12.7969 0.390625 7.625 2.20312
L7.625 11.7188
Q11.7188 9.32812 16.5938 8.10938
Q21.4844 6.89062 26.8125 6.89062
Q36.0781 6.89062 40.9375 10.5469
Q45.7969 14.2031 45.7969 21.1875
Q45.7969 27.6406 41.2812 31.2656
Q36.7656 34.9062 28.7188 34.9062
L20.2188 34.9062
L20.2188 43.0156
L29.1094 43.0156
Q36.375 43.0156 40.2344 45.9219
Q44.0938 48.8281 44.0938 54.2969
Q44.0938 59.9062 40.1094 62.9062
Q36.1406 65.9219 28.7188 65.9219
Q24.6562 65.9219 20.0156 65.0312
Q15.375 64.1562 9.8125 62.3125
L9.8125 71.0938
Q15.4375 72.6562 20.3438 73.4375
Q25.25 74.2188 29.5938 74.2188
Q40.8281 74.2188 47.3594 69.1094
Q53.9062 64.0156 53.9062 55.3281
Q53.9062 49.2656 50.4375 45.0938
Q46.9688 40.9219 40.5781 39.3125" id="DejaVuSans-33"/>
      </defs>
      <g transform="translate(24.1025 242.453)scale(0.12 -0.12)">
       <use xlink:href="#DejaVuSans-30"/>
       <use x="63.623046875" xlink:href="#DejaVuSans-2e"/>
       <use x="95.41015625" xlink:href="#DejaVuSans-33"/>
      </g>
     </g>
    </g>
    <g id="ytick_5">
     <g id="line2d_22">
      <g>
       <use style="stroke:#000000;stroke-width:0.5;" x="45.433125" xlink:href="#m728421d6d4" y="195.94175"/>
      </g>
     </g>
     <g id="line2d_23">
      <g>
       <use style="stroke:#000000;stroke-width:0.5;" x="491.833125" xlink:href="#mcb0005524f" y="195.94175"/>
      </g>
     </g>
     <g id="text_11">
      <!-- 0.4 -->
      <defs>
       <path d="
M37.7969 64.3125
L12.8906 25.3906
L37.7969 25.3906
z

M35.2031 72.9062
L47.6094 72.9062
L47.6094 25.3906
L58.0156 25.3906
L58.0156 17.1875
L47.6094 17.1875
L47.6094 0
L37.7969 0
L37.7969 17.1875
L4.89062 17.1875
L4.89062 26.7031
z
" id="DejaVuSans-34"/>
      </defs>
      <g transform="translate(23.81375 199.253)scale(0.12 -0.12)">
       <use xlink:href="#DejaVuSans-30"/>
       <use x="63.623046875" xlink:href="#DejaVuSans-2e"/>
       <use x="95.41015625" xlink:href="#DejaVuSans-34"/>
      </g>
     </g>
    </g>
    <g id="ytick_6">
     <g id="line2d_24">
      <g>
       <use style="stroke:#000000;stroke-width:0.5;" x="45.433125" xlink:href="#m728421d6d4" y="152.74175"/>
      </g>
     </g>
     <g id="line2d_25">
      <g>
       <use style="stroke:#000000;stroke-width:0.5;" x="491.833125" xlink:href="#mcb0005524f" y="152.74175"/>
      </g>
     </g>
     <g id="text_12">
      <!-- 0.5 -->
      <g transform="translate(24.18875 156.053)scale(0.12 -0.12)">
       <use xlink:href="#DejaVuSans-30"/>
       <use x="63.623046875" xlink:href="#DejaVuSans-2e"/>
       <use x="95.41015625" xlink:href="#DejaVuSans-35"/>
      </g>
     </g>
    </g>
    <g id="ytick_7">
     <g id="line2d_26">
      <g>
       <use style="stroke:#000000;stroke-width:0.5;" x="45.433125" xlink:href="#m728421d6d4" y="109.54175"/>
      </g>
     </g>
     <g id="line2d_27">
      <g>
       <use style="stroke:#000000;stroke-width:0.5;" x="491.833125" xlink:href="#mcb0005524f" y="109.54175"/>
      </g>
     </g>
     <g id="text_13">
      <!-- 0.6 -->
      <defs>
       <path d="
M33.0156 40.375
Q26.375 40.375 22.4844 35.8281
Q18.6094 31.2969 18.6094 23.3906
Q18.6094 15.5312 22.4844 10.9531
Q26.375 6.39062 33.0156 6.39062
Q39.6562 6.39062 43.5312 10.9531
Q47.4062 15.5312 47.4062 23.3906
Q47.4062 31.2969 43.5312 35.8281
Q39.6562 40.375 33.0156 40.375
M52.5938 71.2969
L52.5938 62.3125
Q48.875 64.0625 45.0938 64.9844
Q41.3125 65.9219 37.5938 65.9219
Q27.8281 65.9219 22.6719 59.3281
Q17.5312 52.7344 16.7969 39.4062
Q19.6719 43.6562 24.0156 45.9219
Q28.375 48.1875 33.5938 48.1875
Q44.5781 48.1875 50.9531 41.5156
Q57.3281 34.8594 57.3281 23.3906
Q57.3281 12.1562 50.6875 5.35938
Q44.0469 -1.42188 33.0156 -1.42188
Q20.3594 -1.42188 13.6719 8.26562
Q6.98438 17.9688 6.98438 36.375
Q6.98438 53.6562 15.1875 63.9375
Q23.3906 74.2188 37.2031 74.2188
Q40.9219 74.2188 44.7031 73.4844
Q48.4844 72.75 52.5938 71.2969" id="DejaVuSans-36"/>
      </defs>
      <g transform="translate(23.89625 112.853)scale(0.12 -0.12)">
       <use xlink:href="#DejaVuSans-30"/>
       <use x="63.623046875" xlink:href="#DejaVuSans-2e"/>
       <use x="95.41015625" xlink:href="#DejaVuSans-36"/>
      </g>
     </g>
    </g>
    <g id="ytick_8">
     <g id="line2d_28">
      <g>
       <use style="stroke:#000000;stroke-width:0.5;" x="45.433125" xlink:href="#m728421d6d4" y="66.34175"/>
      </g>
     </g>
     <g id="line2d_29">
      <g>
       <use style="stroke:#000000;stroke-width:0.5;" x="491.833125" xlink:href="#mcb0005524f" y="66.34175"/>
      </g>
     </g>
     <g id="text_14">
      <!-- 0.7 -->
      <defs>
       <path d="
M8.20312 72.9062
L55.0781 72.9062
L55.0781 68.7031
L28.6094 0
L18.3125 0
L43.2188 64.5938
L8.20312 64.5938
z
" id="DejaVuSans-37"/>
      </defs>
      <g transform="translate(24.16625 69.653)scale(0.12 -0.12)">
       <use xlink:href="#DejaVuSans-30"/>
       <use x="63.623046875" xlink:href="#DejaVuSans-2e"/>
       <use x="95.41015625" xlink:href="#DejaVuSans-37"/>
      </g>
     </g>
    </g>
    <g id="ytick_9">
     <g id="line2d_30">
      <g>
       <use style="stroke:#000000;stroke-width:0.5;" x="45.433125" xlink:href="#m728421d6d4" y="23.14175"/>
      </g>
     </g>
     <g id="line2d_31">
      <g>
       <use style="stroke:#000000;stroke-width:0.5;" x="491.833125" xlink:href="#mcb0005524f" y="23.14175"/>
      </g>
     </g>
     <g id="text_15">
      <!-- 0.8 -->
      <defs>
       <path d="
M31.7812 34.625
Q24.75 34.625 20.7188 30.8594
Q16.7031 27.0938 16.7031 20.5156
Q16.7031 13.9219 20.7188 10.1562
Q24.75 6.39062 31.7812 6.39062
Q38.8125 6.39062 42.8594 10.1719
Q46.9219 13.9688 46.9219 20.5156
Q46.9219 27.0938 42.8906 30.8594
Q38.875 34.625 31.7812 34.625
M21.9219 38.8125
Q15.5781 40.375 12.0312 44.7188
Q8.5 49.0781 8.5 55.3281
Q8.5 64.0625 14.7188 69.1406
Q20.9531 74.2188 31.7812 74.2188
Q42.6719 74.2188 48.875 69.1406
Q55.0781 64.0625 55.0781 55.3281
Q55.0781 49.0781 51.5312 44.7188
Q48 40.375 41.7031 38.8125
Q48.8281 37.1562 52.7969 32.3125
Q56.7812 27.4844 56.7812 20.5156
Q56.7812 9.90625 50.3125 4.23438
Q43.8438 -1.42188 31.7812 -1.42188
Q19.7344 -1.42188 13.25 4.23438
Q6.78125 9.90625 6.78125 20.5156
Q6.78125 27.4844 10.7812 32.3125
Q14.7969 37.1562 21.9219 38.8125
M18.3125 54.3906
Q18.3125 48.7344 21.8438 45.5625
Q25.3906 42.3906 31.7812 42.3906
Q38.1406 42.3906 41.7188 45.5625
Q45.3125 48.7344 45.3125 54.3906
Q45.3125 60.0625 41.7188 63.2344
Q38.1406 66.4062 31.7812 66.4062
Q25.3906 66.4062 21.8438 63.2344
Q18.3125 60.0625 18.3125 54.3906" id="DejaVuSans-38"/>
      </defs>
      <g transform="translate(23.961875 26.453)scale(0.12 -0.12)">
       <use xlink:href="#DejaVuSans-30"/>
       <use x="63.623046875" xlink:href="#DejaVuSans-2e"/>
       <use x="95.41015625" xlink:href="#DejaVuSans-38"/>
      </g>
     </g>
    </g>
    <g id="text_16">
     <!-- Average loss -->
     <defs>
      <path d="
M45.4062 27.9844
Q45.4062 37.75 41.375 43.1094
Q37.3594 48.4844 30.0781 48.4844
Q22.8594 48.4844 18.8281 43.1094
Q14.7969 37.75 14.7969 27.9844
Q14.7969 18.2656 18.8281 12.8906
Q22.8594 7.51562 30.0781 7.51562
Q37.3594 7.51562 41.375 12.8906
Q45.4062 18.2656 45.4062 27.9844
M54.3906 6.78125
Q54.3906 -7.17188 48.1875 -13.9844
Q42 -20.7969 29.2031 -20.7969
Q24.4688 -20.7969 20.2656 -20.0938
Q16.0625 -19.3906 12.1094 -17.9219
L12.1094 -9.1875
Q16.0625 -11.3281 19.9219 -12.3438
Q23.7812 -13.375 27.7812 -13.375
Q36.625 -13.375 41.0156 -8.76562
Q45.4062 -4.15625 45.4062 5.17188
L45.4062 9.625
Q42.625 4.78125 38.2812 2.39062
Q33.9375 0 27.875 0
Q17.8281 0 11.6719 7.65625
Q5.51562 15.3281 5.51562 27.9844
Q5.51562 40.6719 11.6719 48.3281
Q17.8281 56 27.875 56
Q33.9375 56 38.2812 53.6094
Q42.625 51.2188 45.4062 46.3906
L45.4062 54.6875
L54.3906 54.6875
z
" id="DejaVuSans-67"/>
      <path id="DejaVuSans-20"/>
      <path d="
M2.98438 54.6875
L12.5 54.6875
L29.5938 8.79688
L46.6875 54.6875
L56.2031 54.6875
L35.6875 0
L23.4844 0
z
" id="DejaVuSans-76"/>
      <path d="
M34.1875 63.1875
L20.7969 26.9062
L47.6094 26.9062
z

M28.6094 72.9062
L39.7969 72.9062
L67.5781 0
L57.3281 0
L50.6875 18.7031
L17.8281 18.7031
L11.1875 0
L0.78125 0
z
" id="DejaVuSans-41"/>
      <path d="
M9.42188 75.9844
L18.4062 75.9844
L18.4062 0
L9.42188 0
z
" id="DejaVuSans-6c"/>
     </defs>
     <g transform="translate(16.318125 233.784875)rotate(-90.0)scale(0.12 -0.12)">
      <use xlink:href="#DejaVuSans-41"/>
      <use x="62.533203125" xlink:href="#DejaVuSans-76"/>
      <use x="121.712890625" xlink:href="#DejaVuSans-65"/>
      <use x="183.236328125" xlink:href="#DejaVuSans-72"/>
      <use x="224.349609375" xlink:href="#DejaVuSans-61"/>
      <use x="285.62890625" xlink:href="#DejaVuSans-67"/>
      <use x="349.10546875" xlink:href="#DejaVuSans-65"/>
      <use x="410.62890625" xlink:href="#DejaVuSans-20"/>
      <use x="442.416015625" xlink:href="#DejaVuSans-6c"/>
      <use x="470.19921875" xlink:href="#DejaVuSans-6f"/>
      <use x="531.380859375" xlink:href="#DejaVuSans-73"/>
      <use x="583.48046875" xlink:href="#DejaVuSans-73"/>
     </g>
    </g>
   </g>
   <g id="text_17">
    <!-- Avg. loss over 20 trials -->
    <g transform="translate(187.135875 18.14175)scale(0.144 -0.144)">
     <use xlink:href="#DejaVuSans-41"/>
     <use x="62.533203125" xlink:href="#DejaVuSans-76"/>
     <use x="121.712890625" xlink:href="#DejaVuSans-67"/>
     <use x="185.189453125" xlink:href="#DejaVuSans-2e"/>
     <use x="216.9765625" xlink:href="#DejaVuSans-20"/>
     <use x="248.763671875" xlink:href="#DejaVuSans-6c"/>
     <use x="276.546875" xlink:href="#DejaVuSans-6f"/>
     <use x="337.728515625" xlink:href="#DejaVuSans-73"/>
     <use x="389.828125" xlink:href="#DejaVuSans-73"/>
     <use x="441.927734375" xlink:href="#DejaVuSans-20"/>
     <use x="473.71484375" xlink:href="#DejaVuSans-6f"/>
     <use x="534.896484375" xlink:href="#DejaVuSans-76"/>
     <use x="594.076171875" xlink:href="#DejaVuSans-65"/>
     <use x="655.599609375" xlink:href="#DejaVuSans-72"/>
     <use x="696.712890625" xlink:href="#DejaVuSans-20"/>
     <use x="728.5" xlink:href="#DejaVuSans-32"/>
     <use x="792.123046875" xlink:href="#DejaVuSans-30"/>
     <use x="855.74609375" xlink:href="#DejaVuSans-20"/>
     <use x="887.533203125" xlink:href="#DejaVuSans-74"/>
     <use x="926.7421875" xlink:href="#DejaVuSans-72"/>
     <use x="967.85546875" xlink:href="#DejaVuSans-69"/>
     <use x="995.638671875" xlink:href="#DejaVuSans-61"/>
     <use x="1056.91796875" xlink:href="#DejaVuSans-6c"/>
     <use x="1084.70117188" xlink:href="#DejaVuSans-73"/>
    </g>
   </g>
  </g>
 </g>
 <defs>
  <clipPath id="p0827bc6f34">
   <rect height="345.6" width="446.4" x="45.433125" y="23.14175"/>
  </clipPath>
 </defs>
</svg>
