<?xml version="1.0" encoding="utf-8" standalone="no"?>
<!DOCTYPE svg PUBLIC "-//W3C//DTD SVG 1.1//EN"
  "http://www.w3.org/Graphics/SVG/1.1/DTD/svg11.dtd">
<!-- Created with matplotlib (http://matplotlib.org/) -->
<svg height="408pt" version="1.1" viewBox="0 0 522 408" width="522pt" xmlns="http://www.w3.org/2000/svg" xmlns:xlink="http://www.w3.org/1999/xlink">
 <defs>
  <style type="text/css">
*{stroke-linecap:butt;stroke-linejoin:round;}
  </style>
 </defs>
 <g id="figure_1">
  <g id="patch_1">
   <path d="
M0 408.169
L522.666 408.169
L522.666 0
L0 0
z
" style="fill:#ffffff;"/>
  </g>
  <g id="axes_1">
   <g id="patch_2">
    <path d="
M62.2688 368.742
L508.669 368.742
L508.669 23.1417
L62.2688 23.1417
z
" style="fill:#ffffff;"/>
   </g>
   <g id="LineCollection_1">
    <defs>
     <path d="
M84.5888 -96.9881
L84.5888 -350.106" id="C0_0_b033c5a637"/>
     <path d="
M106.909 -77.4028
L106.909 -144.017" id="C0_1_aa9cd6f777"/>
     <path d="
M129.229 -77.4028
L129.229 -144.017" id="C0_2_dde5bc667a"/>
     <path d="
M151.549 -81.2774
L151.549 -128.833" id="C0_3_02bd1956f2"/>
     <path d="
M173.869 -81.2774
L173.869 -128.833" id="C0_4_a33dcfca9d"/>
     <path d="
M196.189 -86.3618
L196.189 -119.468" id="C0_5_6a59d4940b"/>
     <path d="
M218.509 -85.7465
L218.509 -117.355" id="C0_6_be891b672b"/>
     <path d="
M240.829 -85.1472
L240.829 -116.244" id="C0_7_d0f03f6bb6"/>
     <path d="
M263.149 -85.1472
L263.149 -116.244" id="C0_8_91fc240885"/>
     <path d="
M285.469 -96.9125
L285.469 -97.2088" id="C0_9_c3dc9ae539"/>
     <path d="
M307.789 -96.9125
L307.789 -97.2088" id="C0_a_7db4d52c33"/>
     <path d="
M330.109 -80.9591
L330.109 -130.964" id="C0_b_08528da75e"/>
     <path d="
M352.429 -80.9591
L352.429 -130.964" id="C0_c_c8a38a49b7"/>
     <path d="
M374.749 -80.9591
L374.749 -130.964" id="C0_d_72aba7a90d"/>
     <path d="
M397.069 -85.565
L397.069 -117.232" id="C0_e_ddd8484b1c"/>
     <path d="
M419.389 -85.565
L419.389 -117.232" id="C0_f_6418c2624a"/>
     <path d="
M441.709 -84.5119
L441.709 -121.371" id="C0_10_a82bd6bf9c"/>
     <path d="
M464.029 -84.974
L464.029 -116.113" id="C0_11_b854c17c3b"/>
     <path d="
M486.349 -96.9125
L486.349 -97.2088" id="C0_12_99bc23efab"/>
     <path d="
M508.669 -96.9125
L508.669 -97.2088" id="C0_13_54d4c4c0b0"/>
    </defs>
    <g clip-path="url(#pb9491262bc)">
     <use style="fill:none;stroke:#0000ff;" x="0.0" xlink:href="#C0_0_b033c5a637" y="408.16925"/>
    </g>
    <g clip-path="url(#pb9491262bc)">
     <use style="fill:none;stroke:#0000ff;" x="0.0" xlink:href="#C0_1_aa9cd6f777" y="408.16925"/>
    </g>
    <g clip-path="url(#pb9491262bc)">
     <use style="fill:none;stroke:#0000ff;" x="0.0" xlink:href="#C0_2_dde5bc667a" y="408.16925"/>
    </g>
    <g clip-path="url(#pb9491262bc)">
     <use style="fill:none;stroke:#0000ff;" x="0.0" xlink:href="#C0_3_02bd1956f2" y="408.16925"/>
    </g>
    <g clip-path="url(#pb9491262bc)">
     <use style="fill:none;stroke:#0000ff;" x="0.0" xlink:href="#C0_4_a33dcfca9d" y="408.16925"/>
    </g>
    <g clip-path="url(#pb9491262bc)">
     <use style="fill:none;stroke:#0000ff;" x="0.0" xlink:href="#C0_5_6a59d4940b" y="408.16925"/>
    </g>
    <g clip-path="url(#pb9491262bc)">
     <use style="fill:none;stroke:#0000ff;" x="0.0" xlink:href="#C0_6_be891b672b" y="408.16925"/>
    </g>
    <g clip-path="url(#pb9491262bc)">
     <use style="fill:none;stroke:#0000ff;" x="0.0" xlink:href="#C0_7_d0f03f6bb6" y="408.16925"/>
    </g>
    <g clip-path="url(#pb9491262bc)">
     <use style="fill:none;stroke:#0000ff;" x="0.0" xlink:href="#C0_8_91fc240885" y="408.16925"/>
    </g>
    <g clip-path="url(#pb9491262bc)">
     <use style="fill:none;stroke:#0000ff;" x="0.0" xlink:href="#C0_9_c3dc9ae539" y="408.16925"/>
    </g>
    <g clip-path="url(#pb9491262bc)">
     <use style="fill:none;stroke:#0000ff;" x="0.0" xlink:href="#C0_a_7db4d52c33" y="408.16925"/>
    </g>
    <g clip-path="url(#pb9491262bc)">
     <use style="fill:none;stroke:#0000ff;" x="0.0" xlink:href="#C0_b_08528da75e" y="408.16925"/>
    </g>
    <g clip-path="url(#pb9491262bc)">
     <use style="fill:none;stroke:#0000ff;" x="0.0" xlink:href="#C0_c_c8a38a49b7" y="408.16925"/>
    </g>
    <g clip-path="url(#pb9491262bc)">
     <use style="fill:none;stroke:#0000ff;" x="0.0" xlink:href="#C0_d_72aba7a90d" y="408.16925"/>
    </g>
    <g clip-path="url(#pb9491262bc)">
     <use style="fill:none;stroke:#0000ff;" x="0.0" xlink:href="#C0_e_ddd8484b1c" y="408.16925"/>
    </g>
    <g clip-path="url(#pb9491262bc)">
     <use style="fill:none;stroke:#0000ff;" x="0.0" xlink:href="#C0_f_6418c2624a" y="408.16925"/>
    </g>
    <g clip-path="url(#pb9491262bc)">
     <use style="fill:none;stroke:#0000ff;" x="0.0" xlink:href="#C0_10_a82bd6bf9c" y="408.16925"/>
    </g>
    <g clip-path="url(#pb9491262bc)">
     <use style="fill:none;stroke:#0000ff;" x="0.0" xlink:href="#C0_11_b854c17c3b" y="408.16925"/>
    </g>
    <g clip-path="url(#pb9491262bc)">
     <use style="fill:none;stroke:#0000ff;" x="0.0" xlink:href="#C0_12_99bc23efab" y="408.16925"/>
    </g>
    <g clip-path="url(#pb9491262bc)">
     <use style="fill:none;stroke:#0000ff;" x="0.0" xlink:href="#C0_13_54d4c4c0b0" y="408.16925"/>
    </g>
   </g>
   <g id="line2d_1">
    <defs>
     <path d="
M3 1.83697e-16
L-3 -1.83697e-16" id="mdde457ef1d" style="stroke:#0000ff;stroke-width:0.5;"/>
    </defs>
    <g clip-path="url(#pb9491262bc)">
     <use style="fill:#0000ff;stroke:#0000ff;stroke-width:0.5;" x="84.58875" xlink:href="#mdde457ef1d" y="311.181134425"/>
     <use style="fill:#0000ff;stroke:#0000ff;stroke-width:0.5;" x="106.90875" xlink:href="#mdde457ef1d" y="330.766498169"/>
     <use style="fill:#0000ff;stroke:#0000ff;stroke-width:0.5;" x="129.22875" xlink:href="#mdde457ef1d" y="330.766498169"/>
     <use style="fill:#0000ff;stroke:#0000ff;stroke-width:0.5;" x="151.54875" xlink:href="#mdde457ef1d" y="326.891835801"/>
     <use style="fill:#0000ff;stroke:#0000ff;stroke-width:0.5;" x="173.86875" xlink:href="#mdde457ef1d" y="326.891835801"/>
     <use style="fill:#0000ff;stroke:#0000ff;stroke-width:0.5;" x="196.18875" xlink:href="#mdde457ef1d" y="321.807406648"/>
     <use style="fill:#0000ff;stroke:#0000ff;stroke-width:0.5;" x="218.50875" xlink:href="#mdde457ef1d" y="322.422777394"/>
     <use style="fill:#0000ff;stroke:#0000ff;stroke-width:0.5;" x="240.82875" xlink:href="#mdde457ef1d" y="323.02204724"/>
     <use style="fill:#0000ff;stroke:#0000ff;stroke-width:0.5;" x="263.14875" xlink:href="#mdde457ef1d" y="323.02204724"/>
     <use style="fill:#0000ff;stroke:#0000ff;stroke-width:0.5;" x="285.46875" xlink:href="#mdde457ef1d" y="311.256779273"/>
     <use style="fill:#0000ff;stroke:#0000ff;stroke-width:0.5;" x="307.78875" xlink:href="#mdde457ef1d" y="311.256779273"/>
     <use style="fill:#0000ff;stroke:#0000ff;stroke-width:0.5;" x="330.10875" xlink:href="#mdde457ef1d" y="327.210165022"/>
     <use style="fill:#0000ff;stroke:#0000ff;stroke-width:0.5;" x="352.42875" xlink:href="#mdde457ef1d" y="327.210165022"/>
     <use style="fill:#0000ff;stroke:#0000ff;stroke-width:0.5;" x="374.74875" xlink:href="#mdde457ef1d" y="327.210165022"/>
     <use style="fill:#0000ff;stroke:#0000ff;stroke-width:0.5;" x="397.06875" xlink:href="#mdde457ef1d" y="322.604275477"/>
     <use style="fill:#0000ff;stroke:#0000ff;stroke-width:0.5;" x="419.38875" xlink:href="#mdde457ef1d" y="322.604275477"/>
     <use style="fill:#0000ff;stroke:#0000ff;stroke-width:0.5;" x="441.70875" xlink:href="#mdde457ef1d" y="323.65735024"/>
     <use style="fill:#0000ff;stroke:#0000ff;stroke-width:0.5;" x="464.02875" xlink:href="#mdde457ef1d" y="323.195252941"/>
     <use style="fill:#0000ff;stroke:#0000ff;stroke-width:0.5;" x="486.34875" xlink:href="#mdde457ef1d" y="311.256779273"/>
     <use style="fill:#0000ff;stroke:#0000ff;stroke-width:0.5;" x="508.66875" xlink:href="#mdde457ef1d" y="311.256779273"/>
    </g>
   </g>
   <g id="line2d_2">
    <g clip-path="url(#pb9491262bc)">
     <use style="fill:#0000ff;stroke:#0000ff;stroke-width:0.5;" x="84.58875" xlink:href="#mdde457ef1d" y="58.0629861835"/>
     <use style="fill:#0000ff;stroke:#0000ff;stroke-width:0.5;" x="106.90875" xlink:href="#mdde457ef1d" y="264.151938421"/>
     <use style="fill:#0000ff;stroke:#0000ff;stroke-width:0.5;" x="129.22875" xlink:href="#mdde457ef1d" y="264.151938421"/>
     <use style="fill:#0000ff;stroke:#0000ff;stroke-width:0.5;" x="151.54875" xlink:href="#mdde457ef1d" y="279.336476121"/>
     <use style="fill:#0000ff;stroke:#0000ff;stroke-width:0.5;" x="173.86875" xlink:href="#mdde457ef1d" y="279.336476121"/>
     <use style="fill:#0000ff;stroke:#0000ff;stroke-width:0.5;" x="196.18875" xlink:href="#mdde457ef1d" y="288.701500889"/>
     <use style="fill:#0000ff;stroke:#0000ff;stroke-width:0.5;" x="218.50875" xlink:href="#mdde457ef1d" y="290.814459634"/>
     <use style="fill:#0000ff;stroke:#0000ff;stroke-width:0.5;" x="240.82875" xlink:href="#mdde457ef1d" y="291.92523325"/>
     <use style="fill:#0000ff;stroke:#0000ff;stroke-width:0.5;" x="263.14875" xlink:href="#mdde457ef1d" y="291.92523325"/>
     <use style="fill:#0000ff;stroke:#0000ff;stroke-width:0.5;" x="285.46875" xlink:href="#mdde457ef1d" y="310.96046222"/>
     <use style="fill:#0000ff;stroke:#0000ff;stroke-width:0.5;" x="307.78875" xlink:href="#mdde457ef1d" y="310.96046222"/>
     <use style="fill:#0000ff;stroke:#0000ff;stroke-width:0.5;" x="330.10875" xlink:href="#mdde457ef1d" y="277.204929828"/>
     <use style="fill:#0000ff;stroke:#0000ff;stroke-width:0.5;" x="352.42875" xlink:href="#mdde457ef1d" y="277.204929828"/>
     <use style="fill:#0000ff;stroke:#0000ff;stroke-width:0.5;" x="374.74875" xlink:href="#mdde457ef1d" y="277.204929828"/>
     <use style="fill:#0000ff;stroke:#0000ff;stroke-width:0.5;" x="397.06875" xlink:href="#mdde457ef1d" y="290.936762714"/>
     <use style="fill:#0000ff;stroke:#0000ff;stroke-width:0.5;" x="419.38875" xlink:href="#mdde457ef1d" y="290.936762714"/>
     <use style="fill:#0000ff;stroke:#0000ff;stroke-width:0.5;" x="441.70875" xlink:href="#mdde457ef1d" y="286.798305865"/>
     <use style="fill:#0000ff;stroke:#0000ff;stroke-width:0.5;" x="464.02875" xlink:href="#mdde457ef1d" y="292.055828712"/>
     <use style="fill:#0000ff;stroke:#0000ff;stroke-width:0.5;" x="486.34875" xlink:href="#mdde457ef1d" y="310.96046222"/>
     <use style="fill:#0000ff;stroke:#0000ff;stroke-width:0.5;" x="508.66875" xlink:href="#mdde457ef1d" y="310.96046222"/>
    </g>
   </g>
   <g id="line2d_3">
    <path clip-path="url(#pb9491262bc)" d="
M84.5888 184.622
L106.909 297.459
L129.229 297.459
L151.549 303.114
L173.869 303.114
L196.189 305.254
L218.509 306.619
L240.829 307.474
L263.149 307.474
L285.469 311.109
L307.789 311.109
L330.109 302.208
L352.429 302.208
L374.749 302.208
L397.069 306.771
L419.389 306.771
L441.709 305.228
L464.029 307.626
L486.349 311.109
L508.669 311.109" style="fill:none;stroke:#0000ff;stroke-linecap:square;"/>
   </g>
   <g id="patch_3">
    <path d="
M62.2688 23.1417
L508.669 23.1417" style="fill:none;stroke:#000000;stroke-linecap:square;stroke-linejoin:miter;"/>
   </g>
   <g id="patch_4">
    <path d="
M508.669 368.742
L508.669 23.1417" style="fill:none;stroke:#000000;stroke-linecap:square;stroke-linejoin:miter;"/>
   </g>
   <g id="patch_5">
    <path d="
M62.2688 368.742
L508.669 368.742" style="fill:none;stroke:#000000;stroke-linecap:square;stroke-linejoin:miter;"/>
   </g>
   <g id="patch_6">
    <path d="
M62.2688 368.742
L62.2688 23.1417" style="fill:none;stroke:#000000;stroke-linecap:square;stroke-linejoin:miter;"/>
   </g>
   <g id="matplotlib.axis_1">
    <g id="xtick_1">
     <g id="line2d_4">
      <defs>
       <path d="
M0 0
L0 -4" id="m93b0483c22" style="stroke:#000000;stroke-width:0.5;"/>
      </defs>
      <g>
       <use style="stroke:#000000;stroke-width:0.5;" x="62.26875" xlink:href="#m93b0483c22" y="368.74175"/>
      </g>
     </g>
     <g id="line2d_5">
      <defs>
       <path d="
M0 0
L0 4" id="m741efc42ff" style="stroke:#000000;stroke-width:0.5;"/>
      </defs>
      <g>
       <use style="stroke:#000000;stroke-width:0.5;" x="62.26875" xlink:href="#m741efc42ff" y="23.14175"/>
      </g>
     </g>
     <g id="text_1">
      <!-- 0 -->
      <defs>
       <path d="
M31.7812 66.4062
Q24.1719 66.4062 20.3281 58.9062
Q16.5 51.4219 16.5 36.375
Q16.5 21.3906 20.3281 13.8906
Q24.1719 6.39062 31.7812 6.39062
Q39.4531 6.39062 43.2812 13.8906
Q47.125 21.3906 47.125 36.375
Q47.125 51.4219 43.2812 58.9062
Q39.4531 66.4062 31.7812 66.4062
M31.7812 74.2188
Q44.0469 74.2188 50.5156 64.5156
Q56.9844 54.8281 56.9844 36.375
Q56.9844 17.9688 50.5156 8.26562
Q44.0469 -1.42188 31.7812 -1.42188
Q19.5312 -1.42188 13.0625 8.26562
Q6.59375 17.9688 6.59375 36.375
Q6.59375 54.8281 13.0625 64.5156
Q19.5312 74.2188 31.7812 74.2188" id="DejaVuSans-30"/>
      </defs>
      <g transform="translate(59.2453125 381.859875)scale(0.12 -0.12)">
       <use xlink:href="#DejaVuSans-30"/>
      </g>
     </g>
    </g>
    <g id="xtick_2">
     <g id="line2d_6">
      <g>
       <use style="stroke:#000000;stroke-width:0.5;" x="173.86875" xlink:href="#m93b0483c22" y="368.74175"/>
      </g>
     </g>
     <g id="line2d_7">
      <g>
       <use style="stroke:#000000;stroke-width:0.5;" x="173.86875" xlink:href="#m741efc42ff" y="23.14175"/>
      </g>
     </g>
     <g id="text_2">
      <!-- 5 -->
      <defs>
       <path d="
M10.7969 72.9062
L49.5156 72.9062
L49.5156 64.5938
L19.8281 64.5938
L19.8281 46.7344
Q21.9688 47.4688 24.1094 47.8281
Q26.2656 48.1875 28.4219 48.1875
Q40.625 48.1875 47.75 41.5
Q54.8906 34.8125 54.8906 23.3906
Q54.8906 11.625 47.5625 5.09375
Q40.2344 -1.42188 26.9062 -1.42188
Q22.3125 -1.42188 17.5469 -0.640625
Q12.7969 0.140625 7.71875 1.70312
L7.71875 11.625
Q12.1094 9.23438 16.7969 8.0625
Q21.4844 6.89062 26.7031 6.89062
Q35.1562 6.89062 40.0781 11.3281
Q45.0156 15.7656 45.0156 23.3906
Q45.0156 31 40.0781 35.4375
Q35.1562 39.8906 26.7031 39.8906
Q22.75 39.8906 18.8125 39.0156
Q14.8906 38.1406 10.7969 36.2812
z
" id="DejaVuSans-35"/>
      </defs>
      <g transform="translate(171.0384375 381.859875)scale(0.12 -0.12)">
       <use xlink:href="#DejaVuSans-35"/>
      </g>
     </g>
    </g>
    <g id="xtick_3">
     <g id="line2d_8">
      <g>
       <use style="stroke:#000000;stroke-width:0.5;" x="285.46875" xlink:href="#m93b0483c22" y="368.74175"/>
      </g>
     </g>
     <g id="line2d_9">
      <g>
       <use style="stroke:#000000;stroke-width:0.5;" x="285.46875" xlink:href="#m741efc42ff" y="23.14175"/>
      </g>
     </g>
     <g id="text_3">
      <!-- 10 -->
      <defs>
       <path d="
M12.4062 8.29688
L28.5156 8.29688
L28.5156 63.9219
L10.9844 60.4062
L10.9844 69.3906
L28.4219 72.9062
L38.2812 72.9062
L38.2812 8.29688
L54.3906 8.29688
L54.3906 0
L12.4062 0
z
" id="DejaVuSans-31"/>
      </defs>
      <g transform="translate(278.89125 381.859875)scale(0.12 -0.12)">
       <use xlink:href="#DejaVuSans-31"/>
       <use x="63.623046875" xlink:href="#DejaVuSans-30"/>
      </g>
     </g>
    </g>
    <g id="xtick_4">
     <g id="line2d_10">
      <g>
       <use style="stroke:#000000;stroke-width:0.5;" x="397.06875" xlink:href="#m93b0483c22" y="368.74175"/>
      </g>
     </g>
     <g id="line2d_11">
      <g>
       <use style="stroke:#000000;stroke-width:0.5;" x="397.06875" xlink:href="#m741efc42ff" y="23.14175"/>
      </g>
     </g>
     <g id="text_4">
      <!-- 15 -->
      <g transform="translate(390.616875 381.859875)scale(0.12 -0.12)">
       <use xlink:href="#DejaVuSans-31"/>
       <use x="63.623046875" xlink:href="#DejaVuSans-35"/>
      </g>
     </g>
    </g>
    <g id="xtick_5">
     <g id="line2d_12">
      <g>
       <use style="stroke:#000000;stroke-width:0.5;" x="508.66875" xlink:href="#m93b0483c22" y="368.74175"/>
      </g>
     </g>
     <g id="line2d_13">
      <g>
       <use style="stroke:#000000;stroke-width:0.5;" x="508.66875" xlink:href="#m741efc42ff" y="23.14175"/>
      </g>
     </g>
     <g id="text_5">
      <!-- 20 -->
      <defs>
       <path d="
M19.1875 8.29688
L53.6094 8.29688
L53.6094 0
L7.32812 0
L7.32812 8.29688
Q12.9375 14.1094 22.625 23.8906
Q32.3281 33.6875 34.8125 36.5312
Q39.5469 41.8438 41.4219 45.5312
Q43.3125 49.2188 43.3125 52.7812
Q43.3125 58.5938 39.2344 62.25
Q35.1562 65.9219 28.6094 65.9219
Q23.9688 65.9219 18.8125 64.3125
Q13.6719 62.7031 7.8125 59.4219
L7.8125 69.3906
Q13.7656 71.7812 18.9375 73
Q24.125 74.2188 28.4219 74.2188
Q39.75 74.2188 46.4844 68.5469
Q53.2188 62.8906 53.2188 53.4219
Q53.2188 48.9219 51.5312 44.8906
Q49.8594 40.875 45.4062 35.4062
Q44.1875 33.9844 37.6406 27.2188
Q31.1094 20.4531 19.1875 8.29688" id="DejaVuSans-32"/>
      </defs>
      <g transform="translate(501.871875 381.859875)scale(0.12 -0.12)">
       <use xlink:href="#DejaVuSans-32"/>
       <use x="63.623046875" xlink:href="#DejaVuSans-30"/>
      </g>
     </g>
    </g>
    <g id="text_6">
     <!-- Iterations -->
     <defs>
      <path d="
M54.8906 33.0156
L54.8906 0
L45.9062 0
L45.9062 32.7188
Q45.9062 40.4844 42.875 44.3281
Q39.8438 48.1875 33.7969 48.1875
Q26.5156 48.1875 22.3125 43.5469
Q18.1094 38.9219 18.1094 30.9062
L18.1094 0
L9.07812 0
L9.07812 54.6875
L18.1094 54.6875
L18.1094 46.1875
Q21.3438 51.125 25.7031 53.5625
Q30.0781 56 35.7969 56
Q45.2188 56 50.0469 50.1719
Q54.8906 44.3438 54.8906 33.0156" id="DejaVuSans-6e"/>
      <path d="
M30.6094 48.3906
Q23.3906 48.3906 19.1875 42.75
Q14.9844 37.1094 14.9844 27.2969
Q14.9844 17.4844 19.1562 11.8438
Q23.3438 6.20312 30.6094 6.20312
Q37.7969 6.20312 41.9844 11.8594
Q46.1875 17.5312 46.1875 27.2969
Q46.1875 37.0156 41.9844 42.7031
Q37.7969 48.3906 30.6094 48.3906
M30.6094 56
Q42.3281 56 49.0156 48.375
Q55.7188 40.7656 55.7188 27.2969
Q55.7188 13.875 49.0156 6.21875
Q42.3281 -1.42188 30.6094 -1.42188
Q18.8438 -1.42188 12.1719 6.21875
Q5.51562 13.875 5.51562 27.2969
Q5.51562 40.7656 12.1719 48.375
Q18.8438 56 30.6094 56" id="DejaVuSans-6f"/>
      <path d="
M41.1094 46.2969
Q39.5938 47.1719 37.8125 47.5781
Q36.0312 48 33.8906 48
Q26.2656 48 22.1875 43.0469
Q18.1094 38.0938 18.1094 28.8125
L18.1094 0
L9.07812 0
L9.07812 54.6875
L18.1094 54.6875
L18.1094 46.1875
Q20.9531 51.1719 25.4844 53.5781
Q30.0312 56 36.5312 56
Q37.4531 56 38.5781 55.875
Q39.7031 55.7656 41.0625 55.5156
z
" id="DejaVuSans-72"/>
      <path d="
M9.42188 54.6875
L18.4062 54.6875
L18.4062 0
L9.42188 0
z

M9.42188 75.9844
L18.4062 75.9844
L18.4062 64.5938
L9.42188 64.5938
z
" id="DejaVuSans-69"/>
      <path d="
M18.3125 70.2188
L18.3125 54.6875
L36.8125 54.6875
L36.8125 47.7031
L18.3125 47.7031
L18.3125 18.0156
Q18.3125 11.3281 20.1406 9.42188
Q21.9688 7.51562 27.5938 7.51562
L36.8125 7.51562
L36.8125 0
L27.5938 0
Q17.1875 0 13.2344 3.875
Q9.28125 7.76562 9.28125 18.0156
L9.28125 47.7031
L2.6875 47.7031
L2.6875 54.6875
L9.28125 54.6875
L9.28125 70.2188
z
" id="DejaVuSans-74"/>
      <path d="
M56.2031 29.5938
L56.2031 25.2031
L14.8906 25.2031
Q15.4844 15.9219 20.4844 11.0625
Q25.4844 6.20312 34.4219 6.20312
Q39.5938 6.20312 44.4531 7.46875
Q49.3125 8.73438 54.1094 11.2812
L54.1094 2.78125
Q49.2656 0.734375 44.1875 -0.34375
Q39.1094 -1.42188 33.8906 -1.42188
Q20.7969 -1.42188 13.1562 6.1875
Q5.51562 13.8125 5.51562 26.8125
Q5.51562 40.2344 12.7656 48.1094
Q20.0156 56 32.3281 56
Q43.3594 56 49.7812 48.8906
Q56.2031 41.7969 56.2031 29.5938
M47.2188 32.2344
Q47.125 39.5938 43.0938 43.9844
Q39.0625 48.3906 32.4219 48.3906
Q24.9062 48.3906 20.3906 44.1406
Q15.875 39.8906 15.1875 32.1719
z
" id="DejaVuSans-65"/>
      <path d="
M9.8125 72.9062
L19.6719 72.9062
L19.6719 0
L9.8125 0
z
" id="DejaVuSans-49"/>
      <path d="
M44.2812 53.0781
L44.2812 44.5781
Q40.4844 46.5312 36.375 47.5
Q32.2812 48.4844 27.875 48.4844
Q21.1875 48.4844 17.8438 46.4375
Q14.5 44.3906 14.5 40.2812
Q14.5 37.1562 16.8906 35.375
Q19.2812 33.5938 26.5156 31.9844
L29.5938 31.2969
Q39.1562 29.25 43.1875 25.5156
Q47.2188 21.7812 47.2188 15.0938
Q47.2188 7.46875 41.1875 3.01562
Q35.1562 -1.42188 24.6094 -1.42188
Q20.2188 -1.42188 15.4531 -0.5625
Q10.6875 0.296875 5.42188 2
L5.42188 11.2812
Q10.4062 8.6875 15.2344 7.39062
Q20.0625 6.10938 24.8125 6.10938
Q31.1562 6.10938 34.5625 8.28125
Q37.9844 10.4531 37.9844 14.4062
Q37.9844 18.0625 35.5156 20.0156
Q33.0625 21.9688 24.7031 23.7812
L21.5781 24.5156
Q13.2344 26.2656 9.51562 29.9062
Q5.8125 33.5469 5.8125 39.8906
Q5.8125 47.6094 11.2812 51.7969
Q16.75 56 26.8125 56
Q31.7812 56 36.1719 55.2656
Q40.5781 54.5469 44.2812 53.0781" id="DejaVuSans-73"/>
      <path d="
M34.2812 27.4844
Q23.3906 27.4844 19.1875 25
Q14.9844 22.5156 14.9844 16.5
Q14.9844 11.7188 18.1406 8.90625
Q21.2969 6.10938 26.7031 6.10938
Q34.1875 6.10938 38.7031 11.4062
Q43.2188 16.7031 43.2188 25.4844
L43.2188 27.4844
z

M52.2031 31.2031
L52.2031 0
L43.2188 0
L43.2188 8.29688
Q40.1406 3.32812 35.5469 0.953125
Q30.9531 -1.42188 24.3125 -1.42188
Q15.9219 -1.42188 10.9531 3.29688
Q6 8.01562 6 15.9219
Q6 25.1406 12.1719 29.8281
Q18.3594 34.5156 30.6094 34.5156
L43.2188 34.5156
L43.2188 35.4062
Q43.2188 41.6094 39.1406 45
Q35.0625 48.3906 27.6875 48.3906
Q23 48.3906 18.5469 47.2656
Q14.1094 46.1406 10.0156 43.8906
L10.0156 52.2031
Q14.9375 54.1094 19.5781 55.0469
Q24.2188 56 28.6094 56
Q40.4844 56 46.3438 49.8438
Q52.2031 43.7031 52.2031 31.2031" id="DejaVuSans-61"/>
     </defs>
     <g transform="translate(257.7740625 398.473625)scale(0.12 -0.12)">
      <use xlink:href="#DejaVuSans-49"/>
      <use x="29.4921875" xlink:href="#DejaVuSans-74"/>
      <use x="68.701171875" xlink:href="#DejaVuSans-65"/>
      <use x="130.224609375" xlink:href="#DejaVuSans-72"/>
      <use x="171.337890625" xlink:href="#DejaVuSans-61"/>
      <use x="232.6171875" xlink:href="#DejaVuSans-74"/>
      <use x="271.826171875" xlink:href="#DejaVuSans-69"/>
      <use x="299.609375" xlink:href="#DejaVuSans-6f"/>
      <use x="360.791015625" xlink:href="#DejaVuSans-6e"/>
      <use x="424.169921875" xlink:href="#DejaVuSans-73"/>
     </g>
    </g>
   </g>
   <g id="matplotlib.axis_2">
    <g id="ytick_1">
     <g id="line2d_14">
      <defs>
       <path d="
M0 0
L4 0" id="m728421d6d4" style="stroke:#000000;stroke-width:0.5;"/>
      </defs>
      <g>
       <use style="stroke:#000000;stroke-width:0.5;" x="62.26875" xlink:href="#m728421d6d4" y="368.74175"/>
      </g>
     </g>
     <g id="line2d_15">
      <defs>
       <path d="
M0 0
L-4 0" id="mcb0005524f" style="stroke:#000000;stroke-width:0.5;"/>
      </defs>
      <g>
       <use style="stroke:#000000;stroke-width:0.5;" x="508.66875" xlink:href="#mcb0005524f" y="368.74175"/>
      </g>
     </g>
     <g id="text_7">
      <!-- −0.05 -->
      <defs>
       <path d="
M10.6875 12.4062
L21 12.4062
L21 0
L10.6875 0
z
" id="DejaVuSans-2e"/>
       <path d="
M10.5938 35.5
L73.1875 35.5
L73.1875 27.2031
L10.5938 27.2031
z
" id="DejaVuSans-2212"/>
      </defs>
      <g transform="translate(23.81375 372.053)scale(0.12 -0.12)">
       <use xlink:href="#DejaVuSans-2212"/>
       <use x="83.7890625" xlink:href="#DejaVuSans-30"/>
       <use x="147.412109375" xlink:href="#DejaVuSans-2e"/>
       <use x="179.19921875" xlink:href="#DejaVuSans-30"/>
       <use x="242.822265625" xlink:href="#DejaVuSans-35"/>
      </g>
     </g>
    </g>
    <g id="ytick_2">
     <g id="line2d_16">
      <g>
       <use style="stroke:#000000;stroke-width:0.5;" x="62.26875" xlink:href="#m728421d6d4" y="311.14175"/>
      </g>
     </g>
     <g id="line2d_17">
      <g>
       <use style="stroke:#000000;stroke-width:0.5;" x="508.66875" xlink:href="#mcb0005524f" y="311.14175"/>
      </g>
     </g>
     <g id="text_8">
      <!-- 0.00 -->
      <g transform="translate(33.138125 314.453)scale(0.12 -0.12)">
       <use xlink:href="#DejaVuSans-30"/>
       <use x="63.623046875" xlink:href="#DejaVuSans-2e"/>
       <use x="95.41015625" xlink:href="#DejaVuSans-30"/>
       <use x="159.033203125" xlink:href="#DejaVuSans-30"/>
      </g>
     </g>
    </g>
    <g id="ytick_3">
     <g id="line2d_18">
      <g>
       <use style="stroke:#000000;stroke-width:0.5;" x="62.26875" xlink:href="#m728421d6d4" y="253.54175"/>
      </g>
     </g>
     <g id="line2d_19">
      <g>
       <use style="stroke:#000000;stroke-width:0.5;" x="508.66875" xlink:href="#mcb0005524f" y="253.54175"/>
      </g>
     </g>
     <g id="text_9">
      <!-- 0.05 -->
      <g transform="translate(33.389375 256.853)scale(0.12 -0.12)">
       <use xlink:href="#DejaVuSans-30"/>
       <use x="63.623046875" xlink:href="#DejaVuSans-2e"/>
       <use x="95.41015625" xlink:href="#DejaVuSans-30"/>
       <use x="159.033203125" xlink:href="#DejaVuSans-35"/>
      </g>
     </g>
    </g>
    <g id="ytick_4">
     <g id="line2d_20">
      <g>
       <use style="stroke:#000000;stroke-width:0.5;" x="62.26875" xlink:href="#m728421d6d4" y="195.94175"/>
      </g>
     </g>
     <g id="line2d_21">
      <g>
       <use style="stroke:#000000;stroke-width:0.5;" x="508.66875" xlink:href="#mcb0005524f" y="195.94175"/>
      </g>
     </g>
     <g id="text_10">
      <!-- 0.10 -->
      <g transform="translate(33.138125 199.253)scale(0.12 -0.12)">
       <use xlink:href="#DejaVuSans-30"/>
       <use x="63.623046875" xlink:href="#DejaVuSans-2e"/>
       <use x="95.41015625" xlink:href="#DejaVuSans-31"/>
       <use x="159.033203125" xlink:href="#DejaVuSans-30"/>
      </g>
     </g>
    </g>
    <g id="ytick_5">
     <g id="line2d_22">
      <g>
       <use style="stroke:#000000;stroke-width:0.5;" x="62.26875" xlink:href="#m728421d6d4" y="138.34175"/>
      </g>
     </g>
     <g id="line2d_23">
      <g>
       <use style="stroke:#000000;stroke-width:0.5;" x="508.66875" xlink:href="#mcb0005524f" y="138.34175"/>
      </g>
     </g>
     <g id="text_11">
      <!-- 0.15 -->
      <g transform="translate(33.389375 141.653)scale(0.12 -0.12)">
       <use xlink:href="#DejaVuSans-30"/>
       <use x="63.623046875" xlink:href="#DejaVuSans-2e"/>
       <use x="95.41015625" xlink:href="#DejaVuSans-31"/>
       <use x="159.033203125" xlink:href="#DejaVuSans-35"/>
      </g>
     </g>
    </g>
    <g id="ytick_6">
     <g id="line2d_24">
      <g>
       <use style="stroke:#000000;stroke-width:0.5;" x="62.26875" xlink:href="#m728421d6d4" y="80.74175"/>
      </g>
     </g>
     <g id="line2d_25">
      <g>
       <use style="stroke:#000000;stroke-width:0.5;" x="508.66875" xlink:href="#mcb0005524f" y="80.74175"/>
      </g>
     </g>
     <g id="text_12">
      <!-- 0.20 -->
      <g transform="translate(33.138125 84.053)scale(0.12 -0.12)">
       <use xlink:href="#DejaVuSans-30"/>
       <use x="63.623046875" xlink:href="#DejaVuSans-2e"/>
       <use x="95.41015625" xlink:href="#DejaVuSans-32"/>
       <use x="159.033203125" xlink:href="#DejaVuSans-30"/>
      </g>
     </g>
    </g>
    <g id="ytick_7">
     <g id="line2d_26">
      <g>
       <use style="stroke:#000000;stroke-width:0.5;" x="62.26875" xlink:href="#m728421d6d4" y="23.14175"/>
      </g>
     </g>
     <g id="line2d_27">
      <g>
       <use style="stroke:#000000;stroke-width:0.5;" x="508.66875" xlink:href="#mcb0005524f" y="23.14175"/>
      </g>
     </g>
     <g id="text_13">
      <!-- 0.25 -->
      <g transform="translate(33.389375 26.453)scale(0.12 -0.12)">
       <use xlink:href="#DejaVuSans-30"/>
       <use x="63.623046875" xlink:href="#DejaVuSans-2e"/>
       <use x="95.41015625" xlink:href="#DejaVuSans-32"/>
       <use x="159.033203125" xlink:href="#DejaVuSans-35"/>
      </g>
     </g>
    </g>
    <g id="text_14">
     <!-- Average loss -->
     <defs>
      <path d="
M45.4062 27.9844
Q45.4062 37.75 41.375 43.1094
Q37.3594 48.4844 30.0781 48.4844
Q22.8594 48.4844 18.8281 43.1094
Q14.7969 37.75 14.7969 27.9844
Q14.7969 18.2656 18.8281 12.8906
Q22.8594 7.51562 30.0781 7.51562
Q37.3594 7.51562 41.375 12.8906
Q45.4062 18.2656 45.4062 27.9844
M54.3906 6.78125
Q54.3906 -7.17188 48.1875 -13.9844
Q42 -20.7969 29.2031 -20.7969
Q24.4688 -20.7969 20.2656 -20.0938
Q16.0625 -19.3906 12.1094 -17.9219
L12.1094 -9.1875
Q16.0625 -11.3281 19.9219 -12.3438
Q23.7812 -13.375 27.7812 -13.375
Q36.625 -13.375 41.0156 -8.76562
Q45.4062 -4.15625 45.4062 5.17188
L45.4062 9.625
Q42.625 4.78125 38.2812 2.39062
Q33.9375 0 27.875 0
Q17.8281 0 11.6719 7.65625
Q5.51562 15.3281 5.51562 27.9844
Q5.51562 40.6719 11.6719 48.3281
Q17.8281 56 27.875 56
Q33.9375 56 38.2812 53.6094
Q42.625 51.2188 45.4062 46.3906
L45.4062 54.6875
L54.3906 54.6875
z
" id="DejaVuSans-67"/>
      <path id="DejaVuSans-20"/>
      <path d="
M2.98438 54.6875
L12.5 54.6875
L29.5938 8.79688
L46.6875 54.6875
L56.2031 54.6875
L35.6875 0
L23.4844 0
z
" id="DejaVuSans-76"/>
      <path d="
M34.1875 63.1875
L20.7969 26.9062
L47.6094 26.9062
z

M28.6094 72.9062
L39.7969 72.9062
L67.5781 0
L57.3281 0
L50.6875 18.7031
L17.8281 18.7031
L11.1875 0
L0.78125 0
z
" id="DejaVuSans-41"/>
      <path d="
M9.42188 75.9844
L18.4062 75.9844
L18.4062 0
L9.42188 0
z
" id="DejaVuSans-6c"/>
     </defs>
     <g transform="translate(16.318125 233.784875)rotate(-90.0)scale(0.12 -0.12)">
      <use xlink:href="#DejaVuSans-41"/>
      <use x="62.533203125" xlink:href="#DejaVuSans-76"/>
      <use x="121.712890625" xlink:href="#DejaVuSans-65"/>
      <use x="183.236328125" xlink:href="#DejaVuSans-72"/>
      <use x="224.349609375" xlink:href="#DejaVuSans-61"/>
      <use x="285.62890625" xlink:href="#DejaVuSans-67"/>
      <use x="349.10546875" xlink:href="#DejaVuSans-65"/>
      <use x="410.62890625" xlink:href="#DejaVuSans-20"/>
      <use x="442.416015625" xlink:href="#DejaVuSans-6c"/>
      <use x="470.19921875" xlink:href="#DejaVuSans-6f"/>
      <use x="531.380859375" xlink:href="#DejaVuSans-73"/>
      <use x="583.48046875" xlink:href="#DejaVuSans-73"/>
     </g>
    </g>
   </g>
   <g id="text_15">
    <!-- Avg. loss over 20 trials -->
    <g transform="translate(203.9715 18.14175)scale(0.144 -0.144)">
     <use xlink:href="#DejaVuSans-41"/>
     <use x="62.533203125" xlink:href="#DejaVuSans-76"/>
     <use x="121.712890625" xlink:href="#DejaVuSans-67"/>
     <use x="185.189453125" xlink:href="#DejaVuSans-2e"/>
     <use x="216.9765625" xlink:href="#DejaVuSans-20"/>
     <use x="248.763671875" xlink:href="#DejaVuSans-6c"/>
     <use x="276.546875" xlink:href="#DejaVuSans-6f"/>
     <use x="337.728515625" xlink:href="#DejaVuSans-73"/>
     <use x="389.828125" xlink:href="#DejaVuSans-73"/>
     <use x="441.927734375" xlink:href="#DejaVuSans-20"/>
     <use x="473.71484375" xlink:href="#DejaVuSans-6f"/>
     <use x="534.896484375" xlink:href="#DejaVuSans-76"/>
     <use x="594.076171875" xlink:href="#DejaVuSans-65"/>
     <use x="655.599609375" xlink:href="#DejaVuSans-72"/>
     <use x="696.712890625" xlink:href="#DejaVuSans-20"/>
     <use x="728.5" xlink:href="#DejaVuSans-32"/>
     <use x="792.123046875" xlink:href="#DejaVuSans-30"/>
     <use x="855.74609375" xlink:href="#DejaVuSans-20"/>
     <use x="887.533203125" xlink:href="#DejaVuSans-74"/>
     <use x="926.7421875" xlink:href="#DejaVuSans-72"/>
     <use x="967.85546875" xlink:href="#DejaVuSans-69"/>
     <use x="995.638671875" xlink:href="#DejaVuSans-61"/>
     <use x="1056.91796875" xlink:href="#DejaVuSans-6c"/>
     <use x="1084.70117188" xlink:href="#DejaVuSans-73"/>
    </g>
   </g>
  </g>
 </g>
 <defs>
  <clipPath id="pb9491262bc">
   <rect height="345.6" width="446.4" x="62.26875" y="23.14175"/>
  </clipPath>
 </defs>
</svg>
